# xmcd
#
# Track frame offsets: 
#        150
#        9375
#        24375
#        41280
#        59950
#        80134
#        92749
#        107130
#        125421
#
# Disc length: 1869 seconds
#
# Revision: 0
# Processed by: cddbd v1.5.2PL0 Copyright (c) Steve Scherf et al.
# Submitted via: ExactAudioCopy v0.99pb5
#
DISCID=71074b09
DTITLE=Soppa and Liikalesti - Oulu-Ug: Hifistely Vittuun!
DYEAR=2010
DGENRE=Rap
TTITLE0=Intro
TTITLE1=Ikusesti Aitoa (feat. Puukko-B and Anemia)
TTITLE2=Kotirosvot (feat. Efta)
TTITLE3=Oulu-Ug Anthem
TTITLE4=Rikottu Kieli (feat. Dima)
TTITLE5=Astu Meiän Kenkiin (feat. Getto-Otto)
TTITLE6=Propsit (feat. Tuke)
TTITLE7=Ittepäisenä
TTITLE8=Kirje Joulupukille (feat. Puukko-B)
EXTD=
EXTT0=
EXTT1=
EXTT2=
EXTT3=
EXTT4=
EXTT5=
EXTT6=
EXTT7=
EXTT8=
PLAYORDER=
